<?xml version="1.0" encoding="UTF-8" standalone="no"?>
<!DOCTYPE svg PUBLIC "-//W3C//DTD SVG 1.1//EN"
 "http://www.w3.org/Graphics/SVG/1.1/DTD/svg11.dtd">
<!-- Generated by graphviz version 2.38.0 (20140413.2041)
 -->
<!-- Title: D Pages: 1 -->
<svg width="664pt" height="366pt"
 viewBox="0.00 0.00 664.00 366.00" xmlns="http://www.w3.org/2000/svg" xmlns:xlink="http://www.w3.org/1999/xlink">
<g id="graph0" class="graph" transform="scale(1 1) rotate(0) translate(4 362)">
<title>D</title>
<polygon fill="white" stroke="none" points="-4,4 -4,-362 660,-362 660,4 -4,4"/>
<!-- leonardo -->
<g id="node1" class="node"><title>leonardo</title>
<g id="a_node1"><a xlink:href="https://www.google.pt/search?q=leonardo+dicaprio" xlink:title="{Nome: Leonardo DiCaprio | Nascimento: 1974&#45;11&#45;11 | Nacionalidade: USA}">
<path fill="none" stroke="black" d="M123,-288.5C123,-288.5 281,-288.5 281,-288.5 287,-288.5 293,-294.5 293,-300.5 293,-300.5 293,-345.5 293,-345.5 293,-351.5 287,-357.5 281,-357.5 281,-357.5 123,-357.5 123,-357.5 117,-357.5 111,-351.5 111,-345.5 111,-345.5 111,-300.5 111,-300.5 111,-294.5 117,-288.5 123,-288.5"/>
<text text-anchor="middle" x="202" y="-342.3" font-family="Arial" font-size="14.00">Nome: Leonardo DiCaprio</text>
<polyline fill="none" stroke="black" points="111,-334.5 293,-334.5 "/>
<text text-anchor="middle" x="202" y="-319.3" font-family="Arial" font-size="14.00">Nascimento: 1974&#45;11&#45;11</text>
<polyline fill="none" stroke="black" points="111,-311.5 293,-311.5 "/>
<text text-anchor="middle" x="202" y="-296.3" font-family="Arial" font-size="14.00">Nacionalidade: USA</text>
</a>
</g>
</g>
<!-- shutterisland -->
<g id="node3" class="node"><title>shutterisland</title>
<path fill="none" stroke="black" d="M60.5,-121.5C60.5,-121.5 185.5,-121.5 185.5,-121.5 191.5,-121.5 197.5,-127.5 197.5,-133.5 197.5,-133.5 197.5,-224.5 197.5,-224.5 197.5,-230.5 191.5,-236.5 185.5,-236.5 185.5,-236.5 60.5,-236.5 60.5,-236.5 54.5,-236.5 48.5,-230.5 48.5,-224.5 48.5,-224.5 48.5,-133.5 48.5,-133.5 48.5,-127.5 54.5,-121.5 60.5,-121.5"/>
<text text-anchor="middle" x="123" y="-221.3" font-family="Arial" font-size="14.00">Nome: Shutter Island</text>
<polyline fill="none" stroke="black" points="48.5,-213.5 197.5,-213.5 "/>
<text text-anchor="middle" x="123" y="-198.3" font-family="Arial" font-size="14.00">Genero: thriller</text>
<polyline fill="none" stroke="black" points="48.5,-190.5 197.5,-190.5 "/>
<text text-anchor="middle" x="123" y="-175.3" font-family="Arial" font-size="14.00">Duracao: 148</text>
<polyline fill="none" stroke="black" points="48.5,-167.5 197.5,-167.5 "/>
<text text-anchor="middle" x="123" y="-152.3" font-family="Arial" font-size="14.00">Idioma: ingles</text>
<polyline fill="none" stroke="black" points="48.5,-144.5 197.5,-144.5 "/>
<text text-anchor="middle" x="123" y="-129.3" font-family="Arial" font-size="14.00">Estudio: paramount</text>
</g>
<!-- leonardo&#45;&gt;shutterisland -->
<g id="edge1" class="edge"><title>leonardo&#45;&gt;shutterisland</title>
<path fill="none" stroke="black" d="M182.352,-288.223C178.877,-282.17 175.313,-275.909 172,-270 167.592,-262.136 163.009,-253.86 158.493,-245.641"/>
<polygon fill="black" stroke="black" points="161.506,-243.857 153.631,-236.769 155.368,-247.221 161.506,-243.857"/>
<text text-anchor="middle" x="203" y="-258.8" font-family="Arial" font-size="14.00">participou</text>
</g>
<!-- inception -->
<g id="node4" class="node"><title>inception</title>
<path fill="none" stroke="black" d="M242,-121.5C242,-121.5 364,-121.5 364,-121.5 370,-121.5 376,-127.5 376,-133.5 376,-133.5 376,-224.5 376,-224.5 376,-230.5 370,-236.5 364,-236.5 364,-236.5 242,-236.5 242,-236.5 236,-236.5 230,-230.5 230,-224.5 230,-224.5 230,-133.5 230,-133.5 230,-127.5 236,-121.5 242,-121.5"/>
<text text-anchor="middle" x="303" y="-221.3" font-family="Arial" font-size="14.00">Nome: Inception</text>
<polyline fill="none" stroke="black" points="230,-213.5 376,-213.5 "/>
<text text-anchor="middle" x="303" y="-198.3" font-family="Arial" font-size="14.00">Genero: thriller</text>
<polyline fill="none" stroke="black" points="230,-190.5 376,-190.5 "/>
<text text-anchor="middle" x="303" y="-175.3" font-family="Arial" font-size="14.00">Duracao: 148</text>
<polyline fill="none" stroke="black" points="230,-167.5 376,-167.5 "/>
<text text-anchor="middle" x="303" y="-152.3" font-family="Arial" font-size="14.00">Idioma: ingles</text>
<polyline fill="none" stroke="black" points="230,-144.5 376,-144.5 "/>
<text text-anchor="middle" x="303" y="-129.3" font-family="Arial" font-size="14.00">Estudio: warner bros</text>
</g>
<!-- leonardo&#45;&gt;inception -->
<g id="edge2" class="edge"><title>leonardo&#45;&gt;inception</title>
<path fill="none" stroke="black" d="M225.936,-288.348C235.189,-275.338 246.106,-259.99 256.767,-245.001"/>
<polygon fill="black" stroke="black" points="259.707,-246.906 262.651,-236.728 254.003,-242.848 259.707,-246.906"/>
<text text-anchor="middle" x="281" y="-258.8" font-family="Arial" font-size="14.00">participou</text>
</g>
<!-- bale -->
<g id="node2" class="node"><title>bale</title>
<g id="a_node2"><a xlink:href="https://www.google.pt/search?q=christian+bale" xlink:title="{Nome: Christian Bale | Nascimento: 1974&#45;01&#45;30 | Nacionalidade: USA}">
<path fill="none" stroke="black" d="M475,-288.5C475,-288.5 625,-288.5 625,-288.5 631,-288.5 637,-294.5 637,-300.5 637,-300.5 637,-345.5 637,-345.5 637,-351.5 631,-357.5 625,-357.5 625,-357.5 475,-357.5 475,-357.5 469,-357.5 463,-351.5 463,-345.5 463,-345.5 463,-300.5 463,-300.5 463,-294.5 469,-288.5 475,-288.5"/>
<text text-anchor="middle" x="550" y="-342.3" font-family="Arial" font-size="14.00">Nome: Christian Bale</text>
<polyline fill="none" stroke="black" points="463,-334.5 637,-334.5 "/>
<text text-anchor="middle" x="550" y="-319.3" font-family="Arial" font-size="14.00">Nascimento: 1974&#45;01&#45;30</text>
<polyline fill="none" stroke="black" points="463,-311.5 637,-311.5 "/>
<text text-anchor="middle" x="550" y="-296.3" font-family="Arial" font-size="14.00">Nacionalidade: USA</text>
</a>
</g>
</g>
<!-- prestige -->
<g id="node5" class="node"><title>prestige</title>
<path fill="none" stroke="black" d="M489,-121.5C489,-121.5 611,-121.5 611,-121.5 617,-121.5 623,-127.5 623,-133.5 623,-133.5 623,-224.5 623,-224.5 623,-230.5 617,-236.5 611,-236.5 611,-236.5 489,-236.5 489,-236.5 483,-236.5 477,-230.5 477,-224.5 477,-224.5 477,-133.5 477,-133.5 477,-127.5 483,-121.5 489,-121.5"/>
<text text-anchor="middle" x="550" y="-221.3" font-family="Arial" font-size="14.00">Nome: The Prestige</text>
<polyline fill="none" stroke="black" points="477,-213.5 623,-213.5 "/>
<text text-anchor="middle" x="550" y="-198.3" font-family="Arial" font-size="14.00">Genero: thriller</text>
<polyline fill="none" stroke="black" points="477,-190.5 623,-190.5 "/>
<text text-anchor="middle" x="550" y="-175.3" font-family="Arial" font-size="14.00">Duracao: 130</text>
<polyline fill="none" stroke="black" points="477,-167.5 623,-167.5 "/>
<text text-anchor="middle" x="550" y="-152.3" font-family="Arial" font-size="14.00">Idioma: ingles</text>
<polyline fill="none" stroke="black" points="477,-144.5 623,-144.5 "/>
<text text-anchor="middle" x="550" y="-129.3" font-family="Arial" font-size="14.00">Estudio: warner bros</text>
</g>
<!-- bale&#45;&gt;prestige -->
<g id="edge3" class="edge"><title>bale&#45;&gt;prestige</title>
<path fill="none" stroke="black" d="M550,-288.348C550,-275.941 550,-261.406 550,-247.085"/>
<polygon fill="black" stroke="black" points="553.5,-246.728 550,-236.728 546.5,-246.728 553.5,-246.728"/>
<text text-anchor="middle" x="581" y="-258.8" font-family="Arial" font-size="14.00">participou</text>
</g>
<!-- shutterEv -->
<g id="node6" class="node"><title>shutterEv</title>
<path fill="none" stroke="black" d="M12,-0.5C12,-0.5 206,-0.5 206,-0.5 212,-0.5 218,-6.5 218,-12.5 218,-12.5 218,-57.5 218,-57.5 218,-63.5 212,-69.5 206,-69.5 206,-69.5 12,-69.5 12,-69.5 6,-69.5 0,-63.5 0,-57.5 0,-57.5 0,-12.5 0,-12.5 0,-6.5 6,-0.5 12,-0.5"/>
<text text-anchor="middle" x="109" y="-54.3" font-family="Arial" font-size="14.00">Nome: Estreia do Shutter Island</text>
<polyline fill="none" stroke="black" points="0,-46.5 218,-46.5 "/>
<text text-anchor="middle" x="109" y="-31.3" font-family="Arial" font-size="14.00">Data: 2010&#45;02&#45;25</text>
<polyline fill="none" stroke="black" points="0,-23.5 218,-23.5 "/>
<text text-anchor="middle" x="109" y="-8.3" font-family="Arial" font-size="14.00">Local: Braga</text>
</g>
<!-- shutterisland&#45;&gt;shutterEv -->
<g id="edge4" class="edge"><title>shutterisland&#45;&gt;shutterEv</title>
<path fill="none" stroke="black" d="M117.427,-121.47C116.067,-107.678 114.632,-93.1244 113.339,-80.0137"/>
<polygon fill="black" stroke="black" points="116.802,-79.4588 112.337,-69.8504 109.836,-80.1456 116.802,-79.4588"/>
<text text-anchor="middle" x="140.5" y="-91.8" font-family="Arial" font-size="14.00">estreou</text>
</g>
<!-- inceptionEv -->
<g id="node7" class="node"><title>inceptionEv</title>
<path fill="none" stroke="black" d="M248.5,-0.5C248.5,-0.5 413.5,-0.5 413.5,-0.5 419.5,-0.5 425.5,-6.5 425.5,-12.5 425.5,-12.5 425.5,-57.5 425.5,-57.5 425.5,-63.5 419.5,-69.5 413.5,-69.5 413.5,-69.5 248.5,-69.5 248.5,-69.5 242.5,-69.5 236.5,-63.5 236.5,-57.5 236.5,-57.5 236.5,-12.5 236.5,-12.5 236.5,-6.5 242.5,-0.5 248.5,-0.5"/>
<text text-anchor="middle" x="331" y="-54.3" font-family="Arial" font-size="14.00">Nome: Estreia do Inception</text>
<polyline fill="none" stroke="black" points="236.5,-46.5 425.5,-46.5 "/>
<text text-anchor="middle" x="331" y="-31.3" font-family="Arial" font-size="14.00">Data: 2010&#45;07&#45;22</text>
<polyline fill="none" stroke="black" points="236.5,-23.5 425.5,-23.5 "/>
<text text-anchor="middle" x="331" y="-8.3" font-family="Arial" font-size="14.00">Local: Braga</text>
</g>
<!-- inception&#45;&gt;inceptionEv -->
<g id="edge5" class="edge"><title>inception&#45;&gt;inceptionEv</title>
<path fill="none" stroke="black" d="M314.147,-121.47C316.866,-107.678 319.736,-93.1244 322.321,-80.0137"/>
<polygon fill="black" stroke="black" points="325.824,-80.3387 324.325,-69.8504 318.957,-78.9844 325.824,-80.3387"/>
<text text-anchor="middle" x="345.5" y="-91.8" font-family="Arial" font-size="14.00">estreou</text>
</g>
<!-- prestigeEv -->
<g id="node8" class="node"><title>prestigeEv</title>
<path fill="none" stroke="black" d="M456,-0.5C456,-0.5 644,-0.5 644,-0.5 650,-0.5 656,-6.5 656,-12.5 656,-12.5 656,-57.5 656,-57.5 656,-63.5 650,-69.5 644,-69.5 644,-69.5 456,-69.5 456,-69.5 450,-69.5 444,-63.5 444,-57.5 444,-57.5 444,-12.5 444,-12.5 444,-6.5 450,-0.5 456,-0.5"/>
<text text-anchor="middle" x="550" y="-54.3" font-family="Arial" font-size="14.00">Nome: Estreia do The Prestige</text>
<polyline fill="none" stroke="black" points="444,-46.5 656,-46.5 "/>
<text text-anchor="middle" x="550" y="-31.3" font-family="Arial" font-size="14.00">Data: 2006&#45;12&#45;28</text>
<polyline fill="none" stroke="black" points="444,-23.5 656,-23.5 "/>
<text text-anchor="middle" x="550" y="-8.3" font-family="Arial" font-size="14.00">Local: Braga</text>
</g>
<!-- prestige&#45;&gt;prestigeEv -->
<g id="edge6" class="edge"><title>prestige&#45;&gt;prestigeEv</title>
<path fill="none" stroke="black" d="M550,-121.47C550,-107.678 550,-93.1244 550,-80.0137"/>
<polygon fill="black" stroke="black" points="553.5,-79.8504 550,-69.8504 546.5,-79.8505 553.5,-79.8504"/>
<text text-anchor="middle" x="574.5" y="-91.8" font-family="Arial" font-size="14.00">estreou</text>
</g>
</g>
</svg>
