<?xml version="1.0" encoding="UTF-8" standalone="no"?>
<!DOCTYPE svg PUBLIC "-//W3C//DTD SVG 1.1//EN"
 "http://www.w3.org/Graphics/SVG/1.1/DTD/svg11.dtd">
<!-- Generated by graphviz version 2.38.0 (20140413.2041)
 -->
<!-- Title: D Pages: 1 -->
<svg width="516pt" height="343pt"
 viewBox="0.00 0.00 515.50 343.00" xmlns="http://www.w3.org/2000/svg" xmlns:xlink="http://www.w3.org/1999/xlink">
<g id="graph0" class="graph" transform="scale(1 1) rotate(0) translate(4 339)">
<title>D</title>
<polygon fill="white" stroke="none" points="-4,4 -4,-339 511.5,-339 511.5,4 -4,4"/>
<!-- leonardo -->
<g id="node1" class="node"><title>leonardo</title>
<g id="a_node1"><a xlink:href="https://www.google.pt/search?q=leonardo+dicaprio" xlink:title="{Nome: Leonardo DiCaprio | Nascimento: 1974&#45;11&#45;11 | Nacionalidade: USA}">
<path fill="none" stroke="black" d="M89.5,-265.5C89.5,-265.5 247.5,-265.5 247.5,-265.5 253.5,-265.5 259.5,-271.5 259.5,-277.5 259.5,-277.5 259.5,-322.5 259.5,-322.5 259.5,-328.5 253.5,-334.5 247.5,-334.5 247.5,-334.5 89.5,-334.5 89.5,-334.5 83.5,-334.5 77.5,-328.5 77.5,-322.5 77.5,-322.5 77.5,-277.5 77.5,-277.5 77.5,-271.5 83.5,-265.5 89.5,-265.5"/>
<text text-anchor="middle" x="168.5" y="-319.3" font-family="Arial" font-size="14.00">Nome: Leonardo DiCaprio</text>
<polyline fill="none" stroke="black" points="77.5,-311.5 259.5,-311.5 "/>
<text text-anchor="middle" x="168.5" y="-296.3" font-family="Arial" font-size="14.00">Nascimento: 1974&#45;11&#45;11</text>
<polyline fill="none" stroke="black" points="77.5,-288.5 259.5,-288.5 "/>
<text text-anchor="middle" x="168.5" y="-273.3" font-family="Arial" font-size="14.00">Nacionalidade: USA</text>
</a>
</g>
</g>
<!-- shutterisland -->
<g id="node3" class="node"><title>shutterisland</title>
<path fill="none" stroke="black" d="M12,-98.5C12,-98.5 137,-98.5 137,-98.5 143,-98.5 149,-104.5 149,-110.5 149,-110.5 149,-201.5 149,-201.5 149,-207.5 143,-213.5 137,-213.5 137,-213.5 12,-213.5 12,-213.5 6,-213.5 0,-207.5 0,-201.5 0,-201.5 0,-110.5 0,-110.5 0,-104.5 6,-98.5 12,-98.5"/>
<text text-anchor="middle" x="74.5" y="-198.3" font-family="Arial" font-size="14.00">Nome: Shutter Island</text>
<polyline fill="none" stroke="black" points="0,-190.5 149,-190.5 "/>
<text text-anchor="middle" x="74.5" y="-175.3" font-family="Arial" font-size="14.00">Genero: thriller</text>
<polyline fill="none" stroke="black" points="0,-167.5 149,-167.5 "/>
<text text-anchor="middle" x="74.5" y="-152.3" font-family="Arial" font-size="14.00">Duracao: 148</text>
<polyline fill="none" stroke="black" points="0,-144.5 149,-144.5 "/>
<text text-anchor="middle" x="74.5" y="-129.3" font-family="Arial" font-size="14.00">Idioma: ingles</text>
<polyline fill="none" stroke="black" points="0,-121.5 149,-121.5 "/>
<text text-anchor="middle" x="74.5" y="-106.3" font-family="Arial" font-size="14.00">Estudio: paramount</text>
</g>
<!-- leonardo&#45;&gt;shutterisland -->
<g id="edge1" class="edge"><title>leonardo&#45;&gt;shutterisland</title>
<path fill="none" stroke="black" d="M143.397,-265.414C139.018,-259.341 134.567,-253.024 130.5,-247 125.15,-239.076 119.666,-230.662 114.321,-222.282"/>
<polygon fill="black" stroke="black" points="117.12,-220.161 108.813,-213.584 111.206,-223.906 117.12,-220.161"/>
<text text-anchor="middle" x="161.5" y="-235.8" font-family="Arial" font-size="14.00">participou</text>
</g>
<!-- inception -->
<g id="node4" class="node"><title>inception</title>
<path fill="none" stroke="black" d="M179.5,-98.5C179.5,-98.5 301.5,-98.5 301.5,-98.5 307.5,-98.5 313.5,-104.5 313.5,-110.5 313.5,-110.5 313.5,-201.5 313.5,-201.5 313.5,-207.5 307.5,-213.5 301.5,-213.5 301.5,-213.5 179.5,-213.5 179.5,-213.5 173.5,-213.5 167.5,-207.5 167.5,-201.5 167.5,-201.5 167.5,-110.5 167.5,-110.5 167.5,-104.5 173.5,-98.5 179.5,-98.5"/>
<text text-anchor="middle" x="240.5" y="-198.3" font-family="Arial" font-size="14.00">Nome: Inception</text>
<polyline fill="none" stroke="black" points="167.5,-190.5 313.5,-190.5 "/>
<text text-anchor="middle" x="240.5" y="-175.3" font-family="Arial" font-size="14.00">Genero: thriller</text>
<polyline fill="none" stroke="black" points="167.5,-167.5 313.5,-167.5 "/>
<text text-anchor="middle" x="240.5" y="-152.3" font-family="Arial" font-size="14.00">Duracao: 148</text>
<polyline fill="none" stroke="black" points="167.5,-144.5 313.5,-144.5 "/>
<text text-anchor="middle" x="240.5" y="-129.3" font-family="Arial" font-size="14.00">Idioma: ingles</text>
<polyline fill="none" stroke="black" points="167.5,-121.5 313.5,-121.5 "/>
<text text-anchor="middle" x="240.5" y="-106.3" font-family="Arial" font-size="14.00">Estudio: warner bros</text>
</g>
<!-- leonardo&#45;&gt;inception -->
<g id="edge2" class="edge"><title>leonardo&#45;&gt;inception</title>
<path fill="none" stroke="black" d="M185.563,-265.348C192.037,-252.579 199.654,-237.558 207.119,-222.834"/>
<polygon fill="black" stroke="black" points="210.336,-224.23 211.737,-213.728 204.093,-221.064 210.336,-224.23"/>
<text text-anchor="middle" x="233.5" y="-235.8" font-family="Arial" font-size="14.00">participou</text>
</g>
<!-- bale -->
<g id="node2" class="node"><title>bale</title>
<g id="a_node2"><a xlink:href="https://www.google.pt/search?q=christian+bale" xlink:title="{Nome: Christian Bale | Nascimento: 1974&#45;01&#45;30 | Nacionalidade: USA}">
<path fill="none" stroke="black" d="M345.5,-265.5C345.5,-265.5 495.5,-265.5 495.5,-265.5 501.5,-265.5 507.5,-271.5 507.5,-277.5 507.5,-277.5 507.5,-322.5 507.5,-322.5 507.5,-328.5 501.5,-334.5 495.5,-334.5 495.5,-334.5 345.5,-334.5 345.5,-334.5 339.5,-334.5 333.5,-328.5 333.5,-322.5 333.5,-322.5 333.5,-277.5 333.5,-277.5 333.5,-271.5 339.5,-265.5 345.5,-265.5"/>
<text text-anchor="middle" x="420.5" y="-319.3" font-family="Arial" font-size="14.00">Nome: Christian Bale</text>
<polyline fill="none" stroke="black" points="333.5,-311.5 507.5,-311.5 "/>
<text text-anchor="middle" x="420.5" y="-296.3" font-family="Arial" font-size="14.00">Nascimento: 1974&#45;01&#45;30</text>
<polyline fill="none" stroke="black" points="333.5,-288.5 507.5,-288.5 "/>
<text text-anchor="middle" x="420.5" y="-273.3" font-family="Arial" font-size="14.00">Nacionalidade: USA</text>
</a>
</g>
</g>
<!-- prestige -->
<g id="node5" class="node"><title>prestige</title>
<path fill="none" stroke="black" d="M359.5,-98.5C359.5,-98.5 481.5,-98.5 481.5,-98.5 487.5,-98.5 493.5,-104.5 493.5,-110.5 493.5,-110.5 493.5,-201.5 493.5,-201.5 493.5,-207.5 487.5,-213.5 481.5,-213.5 481.5,-213.5 359.5,-213.5 359.5,-213.5 353.5,-213.5 347.5,-207.5 347.5,-201.5 347.5,-201.5 347.5,-110.5 347.5,-110.5 347.5,-104.5 353.5,-98.5 359.5,-98.5"/>
<text text-anchor="middle" x="420.5" y="-198.3" font-family="Arial" font-size="14.00">Nome: The Prestige</text>
<polyline fill="none" stroke="black" points="347.5,-190.5 493.5,-190.5 "/>
<text text-anchor="middle" x="420.5" y="-175.3" font-family="Arial" font-size="14.00">Genero: thriller</text>
<polyline fill="none" stroke="black" points="347.5,-167.5 493.5,-167.5 "/>
<text text-anchor="middle" x="420.5" y="-152.3" font-family="Arial" font-size="14.00">Duracao: 130</text>
<polyline fill="none" stroke="black" points="347.5,-144.5 493.5,-144.5 "/>
<text text-anchor="middle" x="420.5" y="-129.3" font-family="Arial" font-size="14.00">Idioma: inglês</text>
<polyline fill="none" stroke="black" points="347.5,-121.5 493.5,-121.5 "/>
<text text-anchor="middle" x="420.5" y="-106.3" font-family="Arial" font-size="14.00">Estudio: warner bros</text>
</g>
<!-- bale&#45;&gt;prestige -->
<g id="edge3" class="edge"><title>bale&#45;&gt;prestige</title>
<path fill="none" stroke="black" d="M420.5,-265.348C420.5,-252.941 420.5,-238.406 420.5,-224.085"/>
<polygon fill="black" stroke="black" points="424,-223.728 420.5,-213.728 417,-223.728 424,-223.728"/>
<text text-anchor="middle" x="451.5" y="-235.8" font-family="Arial" font-size="14.00">participou</text>
</g>
<!-- shutterEv -->
<g id="node6" class="node"><title>shutterEv</title>
<path fill="none" stroke="black" d="M22.5,-0.5C22.5,-0.5 126.5,-0.5 126.5,-0.5 132.5,-0.5 138.5,-6.5 138.5,-12.5 138.5,-12.5 138.5,-34.5 138.5,-34.5 138.5,-40.5 132.5,-46.5 126.5,-46.5 126.5,-46.5 22.5,-46.5 22.5,-46.5 16.5,-46.5 10.5,-40.5 10.5,-34.5 10.5,-34.5 10.5,-12.5 10.5,-12.5 10.5,-6.5 16.5,-0.5 22.5,-0.5"/>
<text text-anchor="middle" x="74.5" y="-31.3" font-family="Arial" font-size="14.00">Data: 2010&#45;02&#45;25</text>
<polyline fill="none" stroke="black" points="10.5,-23.5 138.5,-23.5 "/>
<text text-anchor="middle" x="74.5" y="-8.3" font-family="Arial" font-size="14.00">Local: Braga</text>
</g>
<!-- shutterisland&#45;&gt;shutterEv -->
<g id="edge4" class="edge"><title>shutterisland&#45;&gt;shutterEv</title>
<path fill="none" stroke="black" d="M74.5,-98.1404C74.5,-84.0094 74.5,-69.3446 74.5,-56.8565"/>
<polygon fill="black" stroke="black" points="78.0001,-56.5107 74.5,-46.5107 71.0001,-56.5107 78.0001,-56.5107"/>
<text text-anchor="middle" x="99" y="-68.8" font-family="Arial" font-size="14.00">estreou</text>
</g>
<!-- inceptionEv -->
<g id="node7" class="node"><title>inceptionEv</title>
<path fill="none" stroke="black" d="M188.5,-0.5C188.5,-0.5 292.5,-0.5 292.5,-0.5 298.5,-0.5 304.5,-6.5 304.5,-12.5 304.5,-12.5 304.5,-34.5 304.5,-34.5 304.5,-40.5 298.5,-46.5 292.5,-46.5 292.5,-46.5 188.5,-46.5 188.5,-46.5 182.5,-46.5 176.5,-40.5 176.5,-34.5 176.5,-34.5 176.5,-12.5 176.5,-12.5 176.5,-6.5 182.5,-0.5 188.5,-0.5"/>
<text text-anchor="middle" x="240.5" y="-31.3" font-family="Arial" font-size="14.00">Data: 2010&#45;07&#45;22</text>
<polyline fill="none" stroke="black" points="176.5,-23.5 304.5,-23.5 "/>
<text text-anchor="middle" x="240.5" y="-8.3" font-family="Arial" font-size="14.00">Local: Braga</text>
</g>
<!-- inception&#45;&gt;inceptionEv -->
<g id="edge5" class="edge"><title>inception&#45;&gt;inceptionEv</title>
<path fill="none" stroke="black" d="M240.5,-98.1404C240.5,-84.0094 240.5,-69.3446 240.5,-56.8565"/>
<polygon fill="black" stroke="black" points="244,-56.5107 240.5,-46.5107 237,-56.5107 244,-56.5107"/>
<text text-anchor="middle" x="265" y="-68.8" font-family="Arial" font-size="14.00">estreou</text>
</g>
<!-- prestigeEv -->
<g id="node8" class="node"><title>prestigeEv</title>
<path fill="none" stroke="black" d="M368.5,-0.5C368.5,-0.5 472.5,-0.5 472.5,-0.5 478.5,-0.5 484.5,-6.5 484.5,-12.5 484.5,-12.5 484.5,-34.5 484.5,-34.5 484.5,-40.5 478.5,-46.5 472.5,-46.5 472.5,-46.5 368.5,-46.5 368.5,-46.5 362.5,-46.5 356.5,-40.5 356.5,-34.5 356.5,-34.5 356.5,-12.5 356.5,-12.5 356.5,-6.5 362.5,-0.5 368.5,-0.5"/>
<text text-anchor="middle" x="420.5" y="-31.3" font-family="Arial" font-size="14.00">Data: 2006&#45;12&#45;28</text>
<polyline fill="none" stroke="black" points="356.5,-23.5 484.5,-23.5 "/>
<text text-anchor="middle" x="420.5" y="-8.3" font-family="Arial" font-size="14.00">Local: Braga</text>
</g>
<!-- prestige&#45;&gt;prestigeEv -->
<g id="edge6" class="edge"><title>prestige&#45;&gt;prestigeEv</title>
<path fill="none" stroke="black" d="M420.5,-98.1404C420.5,-84.0094 420.5,-69.3446 420.5,-56.8565"/>
<polygon fill="black" stroke="black" points="424,-56.5107 420.5,-46.5107 417,-56.5107 424,-56.5107"/>
<text text-anchor="middle" x="445" y="-68.8" font-family="Arial" font-size="14.00">estreou</text>
</g>
</g>
</svg>
